<?xml version="1.0" encoding="utf-8"?>
<!-- Generator: Adobe Illustrator 16.0.0, SVG Export Plug-In . SVG Version: 6.00 Build 0)  -->
<!DOCTYPE svg PUBLIC "-//W3C//DTD SVG 1.1//EN" "http://www.w3.org/Graphics/SVG/1.1/DTD/svg11.dtd">
<svg version="1.1" id="Layer_1" xmlns="http://www.w3.org/2000/svg" xmlns:xlink="http://www.w3.org/1999/xlink" x="0px" y="0px"
	 width="472.5px" height="164.7px" viewBox="0 0 472.5 164.7" style="enable-background:new 0 0 472.5 164.7;" xml:space="preserve"
	>
<style type="text/css">
<![CDATA[
	.st0{fill:#5E6367;}
	.st1{fill:#6FC9C4;}
]]>
</style>
<g>
	<g>
		<path class="st1" d="M180,46.1c-2.1,0.1-4.3,0.2-6.4,0.4c-18.6,1.4-37.2,3.2-55.5,7.2l0.4,1.3c9.1-1.5,18.3-2.6,27.5-3.5
			c9.2-0.9,18.5-1.5,27.7-2c2.1-0.1,4.1-0.2,6.2-0.3V46.1z"/>
		<path class="st1" d="M285.3,46.4c-2.1-0.2-4.3-0.3-6.4-0.4v3.3c2.1,0.1,4.1,0.2,6.2,0.3c9.3,0.5,18.5,1.1,27.7,2
			c9.2,0.8,18.4,1.9,27.5,3.5l0.5-1.5C322.5,49.6,303.9,47.8,285.3,46.4z"/>
	</g>
	<g>
		<path class="st1" d="M199.1,27.8c2,2.7,3.7,7.2,5.9,9.4c0,0,0,0,0,0c-1.4,1.4-8.5,4.4-10.8,5.6c-1.9,1.1-3.4,4.6-3.7,5.6
			c-0.3,0.8-1.4,5.9-1.1,6.4c0.3,0.6,3.9,0.7,4.1-3.3c0.2-3.1,1-4.9,2.7-5.9c2.7-1.5,7.6-1.7,12.1-3.1c3.4-1.1,4.6-2.2,4.6-2.2
			C206.1,38.7,201.8,28,199.1,27.8z"/>
		<path class="st1" d="M311.4,22.6c-1,0.3-2.5,0.5-3.7,0.6c-0.9,0.9-1.9,1.7-3.4,2c0,0,1.4,0.4,3,0.3c0,0-4.2,4.9-13.1,3.1
			c0,0,1.6,0,2.5-0.7c0,0-4.3-0.5-6.2-2.4c0,0,2.5-0.6,3.6-2.3c0,0-3.6-0.6-6.3-2.4l1.4-0.2c-3-1.4-6.4-2.8-13.8-2.4
			c-8.6,0.5-13,3.4-17.9,4.1c0,0,0,0,0,0c-2.3-2.5-6.2-3.9-11.2-3.7c-10.3,0.5-20.9,1-28.1,0c-3.6-0.5-5.9-0.9-8.3-2.1
			c0.6-0.1,0.9-0.5,0.9-0.5c-3.3-1-5.1-2-6.3-3c0.3-0.7,0.5-1.1,0.7-2.1c0.2-0.8,0.4-1.8,0.2-2c-0.1,0.5-0.3,0.9-0.6,1.4
			c-1.1,2.3-2.8,3-3.3,2.3c-0.5-0.6,0.8-2.1,1.6-3.9c0.9-1.9,0.8-3.2,1.3-3.4c0.2-0.1,0.4,0,0.4,0c-0.1-0.4-0.5-0.5-0.9-0.5
			s-0.9,0.3-1.5,0.9c-0.9,0.9-1.7,1.3-2.3,2.1c-1-1.9-2.3-3.5-3.1-4.1c-0.8-0.6-1.6-0.2-1.7,0.6c-0.1,0.7,0,3.5-0.1,5.4
			c-2.5,1.6-4.7,3.4-5.8,5.1c-0.7,1-0.7,1.6-0.8,2.7c-0.7,0.8-1.3,1.4-2.6,2.2c-1,0.7-2,1.3-2.7,1.7c-0.5,0.3-0.6,0.8-0.4,1.2
			c0.5,0.8,2,2,3.8,2.6c3.3-1.2,5.9-1.7,9.9-2c-0.3-0.5-1.2-0.8-1.2-0.8c2.2-0.3,4-0.1,5.9,1.2c1.7,1.1,4.7,4.4,7.6,9.4
			c2.9,4.9,6.5,6.9,8.2,7.9c1.8,1.1,2.8,3.9,3.1,6.1c0.4,2.6,1.2,11.7-0.3,12.6c-1.1,0.7-2.2,1.1-2.2,1.1s-0.5,1,0.3,2
			c0,0,3.5,0.3,4.5-0.4c0.9-0.6,1.9-3,2.2-5.6c0.4-2.7,0.6-5.5,0.4-9.4c-0.1-3.6-0.8-7.1-0.8-7.1s4.3-0.7,8.5-2.1
			c2.8-0.9,4.5-1.3,6.1-1.4c-0.5-6,2.3-7.9,2.3-7.9c-1.3,5.7-0.1,10.1,3.3,12.3c2.8,1.8,6.2,2.2,8.2,2.7c2.1,0.5,3.2,2,3.2,2
			s-1.2,1.5-2.8,3.5c-1.6,1.9-2.6,4-2.9,4.9c-0.3,1.2-0.8,4.9-0.4,5.1c0.4,0.3,2.9,0.6,3.2-1.2c0.4-2,0-3.5,1.9-5.7
			c0.9-1.1,3.1-3.6,4.6-5.4c0.6,0.5,0.8,0.7,1.1,0.9c1.6,1.3,3.5,2.3,3.6,2.9c0.3,1.2-0.7,6.8-1.1,7.3c-0.4,0.5-1.8,0.4-2.5,1
			c-0.3,0.3,0,1.9,0,1.9s2.3,0,3.6-0.2c1.1-0.1,1.7-1.3,2.2-4.4c0.6-3.6,1.2-8.3,1.2-8.3s-2-1.2-4.6-3.5c-2.2-2-3-3.3-4.5-5.4
			c0.6-2.5,1.1-4.8,1.4-8.8c0.1-1.2,0-3.3-0.2-4.1c0.8-0.1,1.7-0.2,2.4-0.2c4.7,0.1,11.9,5.9,20,8c11,2.9,19.2,0.4,24.5-3.6
			c0,0-1-0.1-1.6-0.3C309.4,27.3,311.4,22.6,311.4,22.6z"/>
	</g>
</g>
<g>
	<path class="st0" d="M2.4,126.5h2.5c2.1,0,2.2-1,2.2-5.9V94.8c0-5.6-0.2-5.9-2.2-5.9H2.4v-1.7h30.7v9.5h-2
		c-0.2-6.9-4.6-7.8-10.4-7.8h-7.2v18.2h6c4.6,0,7.3-1.7,7.3-6.4h2v14.5h-2c-0.1-4.8-2.8-6.4-7.3-6.4h-6.1v11.9c0,3.1,0,5.9,2.6,5.9
		h2.2v1.7h-16V126.5z"/>
	<path class="st0" d="M57.7,86.3c11.9,0,17.4,10.6,17.4,21.4s-5.5,21.4-17.4,21.4c-11.9,0-17.4-10.7-17.4-21.4S45.8,86.3,57.7,86.3z
		 M57.7,127.5c9.6,0,10.2-13,10.2-19.7c0-6.8-0.7-19.7-10.2-19.7s-10.2,13-10.2,19.7C47.5,114.5,48.2,127.5,57.7,127.5z"/>
	<path class="st0" d="M78.8,126.5H80c2.1,0,2.8-1.2,7.2-7.1l8.4-11.5l-9-13.8c-2.5-3.8-3.5-5.2-5.3-5.2h-1.4v-1.7H96v1.7h-1.5
		c-1.6,0-2.2,0.5-2.2,1.3c0,0.6,0.5,1.8,1.4,3.3l6.7,10.2l7.3-10.2c0.7-1.1,1.3-2,1.3-3.2c0-1.4-1.4-1.4-2.8-1.4h-1.3v-1.7h12.1v1.7
		h-1c-2.2,0-4.1,2.5-6.4,5.6l-8.1,11.2l10,15.3c3.2,4.9,4.8,5.6,5.9,5.6h1.4v1.7h-16.5v-1.7h2c1,0,1.8-0.5,1.8-1.3
		c0-0.9-0.3-1.6-1.5-3.4l-7.9-12L88.8,121c-1.6,2.2-1.9,2.8-1.9,3.7c0,1.4,1,1.8,2.1,1.8h1.8v1.7h-12V126.5z"/>
	<path class="st0" d="M142,126.5h1.9c2.5,0,2.5-1.6,2.5-6.6l0-28c0-2.1-0.2-3.1-2.4-3.1h-2v-1.7h11.3c0.4,1.3,1.3,3.8,2.3,6
		l10.4,24.1l10.5-24.6c0.9-2.2,1.6-4.1,2-5.4h11.4v1.7h-2.6c-1.9,0-2,1.3-2,3.5V121c0,4.1,0,5.5,2.6,5.5h2v1.7h-15.7v-1.7h2
		c2.3,0,2.6-0.5,2.6-5.5l0-27.5h-0.1l-13.9,32.3h-2.1l-13.9-32.3h-0.1V120c0,4.8,0.2,6.6,3,6.6h2.1v1.7H142V126.5z"/>
	<path class="st0" d="M198.2,126.5h2.3c1.4,0,2.4-0.3,2.4-3.7V92.7c0-3.3-0.3-3.9-2.6-3.9h-2v-1.7h31.5v9.6h-2
		c0-5.6-2.9-7.9-8.4-7.9h-10v17.7h8.6c3.9,0,5.4-2.7,5.4-6.2h2l0,14.2h-2c0-3.7-1.4-6.3-5.4-6.3h-8.6v18.3h10.5
		c5.4,0,8.5-2.5,8.5-8.1h2v9.7h-32.2V126.5z"/>
	<path class="st0" d="M259.7,86.6c0.6,2.2,1.4,4.3,2.2,6.4l10.2,26.3c2.7,7,3.9,7.2,5.7,7.2h0.7v1.7h-15.8v-1.7h1.3
		c2.6,0,3.1-0.3,3.1-1.4c0-0.6-0.2-1.4-0.6-2.6l-3-7.7h-15.9l-2,4.8c-1.2,2.9-1.6,4.2-1.6,5.1c0,1.8,1.7,1.8,3.8,1.8h0.7v1.7h-11.9
		v-1.7h0.6c1.7,0,3.2-0.6,4.5-4l12.6-30.1c0.8-1.9,1.6-3.9,2.1-5.8H259.7z M262.8,113.1l-7-17.8l-7.5,17.8H262.8z"/>
	<path class="st0" d="M284.4,87.2h16.3c13.4,0,20.8,7.7,20.8,20.9c0,14.3-10.6,20.1-20.3,20.1h-16.9v-1.7h2.4c2,0,2.3-0.6,2.3-6.3
		v-26c0-3.9-0.2-5.4-2.1-5.4h-2.6V87.2z M295.6,126.5h5c11.1,0,13.8-9.6,13.8-18.7c0-9.7-2.9-18.9-14.2-18.9h-4.7V126.5z"/>
	<path class="st0" d="M347,86.3c11.9,0,17.4,10.6,17.4,21.4s-5.5,21.4-17.4,21.4c-11.9,0-17.4-10.7-17.4-21.4S335,86.3,347,86.3z
		 M347,127.5c9.6,0,10.2-13,10.2-19.7c0-6.8-0.7-19.7-10.2-19.7c-9.6,0-10.2,13-10.2,19.7C336.7,114.5,337.4,127.5,347,127.5z"/>
	<path class="st0" d="M424.8,87.2v1.7h-1.1c-1.9,0-3.1,2.2-5.3,10.4l-5.9,22c-0.7,2.6-1.5,5.1-2,7.5h-2.9c-0.6-2-1.3-4-2-6
		l-9.5-26.9H396l-8.6,26.6c-0.7,2.2-1.3,4.3-1.9,6.4h-2.9c-0.6-2.2-1.2-4.6-1.9-6.9l-7.8-27c-1.3-4.4-1.8-6-3.6-6h-1.4v-1.7H383v1.7
		h-1.7c-1.4,0-2.3,0.5-2.3,2c0,1.2,0.7,3.8,1.6,6.8l5.9,20.8h0.1l7.7-24.1c0.8-2.5,1.6-5,2.2-7.8h3.3c0.7,2.8,1.7,5.4,2.2,6.9
		l8.9,25h0.1l5.7-21.6c0.7-2.6,1.2-4.8,1.2-5.9c0-1.2-0.4-2.2-2.2-2.2h-2v-1.7H424.8z"/>
	<path class="st0" d="M454.4,96.9h-2c-0.1-5.1-3.9-8.9-9-8.9c-4.9,0-8.9,2.6-8.9,7.9c0,9.3,21.9,6,21.9,20.9c0,7.9-6.5,12.4-14,12.4
		c-2.4,0-4.4-0.4-5.9-0.7c-1.6-0.3-2.6-0.7-3.1-0.7c-1,0-1.5,0.5-1.7,1.1h-2v-11.5h2c1.2,6,4.1,10.1,10.8,10.1
		c5.3,0,9.1-2.9,9.1-8.5c0-10.2-21.9-7.7-21.9-20.3c0-7.9,6-12.4,13.6-12.4c3,0,6.2,1.7,8.1,1.7c0.9,0,1.1-0.5,1.3-1.3h1.7V96.9z"/>
</g>
<g>
	<path class="st0" d="M465.5,94c-2.2,0-3.9-1.7-3.9-3.9c0-2.2,1.7-3.9,3.9-3.9c2.2,0,3.9,1.7,3.9,3.9C469.4,92.3,467.7,94,465.5,94z
		 M465.5,86.8c-1.9,0-3.3,1.5-3.3,3.4c0,1.9,1.3,3.4,3.3,3.4s3.3-1.5,3.3-3.4C468.8,88.3,467.4,86.8,465.5,86.8z M466.6,92
		c-0.3,0-0.4-0.2-0.4-0.6v-0.5c0-0.3-0.1-0.4-0.5-0.4h-0.8V92H464v-3.7h1.7c0.9,0,1.4,0.4,1.4,1v0.1c0,0.4-0.3,0.7-0.8,0.8
		c0.5,0.1,0.7,0.4,0.7,0.8v0.4c0,0.2,0.1,0.4,0.2,0.5V92H466.6z M466.3,89.4c0-0.3-0.2-0.5-0.6-0.5h-0.8v1h0.8
		C466.1,90,466.3,89.8,466.3,89.4L466.3,89.4z"/>
</g>
<g>
	<g>
		<path class="st1" d="M47.1,153.3c-1-0.9-2.4-1.7-4.4-1.7c-2.9,0-4.5,2-4.5,4.1v0.2c0,2.1,1.7,4,4.7,4c1.8,0,3.3-0.9,4.3-1.8
			l1.2,1.3c-1.2,1.2-3.2,2.2-5.6,2.2c-4.1,0-6.6-2.7-6.6-5.6v-0.4c0-2.9,2.7-5.7,6.7-5.7c2.3,0,4.4,1,5.5,2.2L47.1,153.3z"/>
		<path class="st1" d="M63.3,161.2c-0.6,0-0.8-0.8-0.9-1.7l-0.1-1.1c-0.1-1.1-0.5-1.5-2.6-1.5H56v4.4h-2v-10.9h5.9
			c3.3,0,4.7,1.3,4.7,3c0,1.2-0.6,2.3-2.7,2.7c2.1,0.2,2.6,1.1,2.6,2.4l0,0.9c0,0.8,0.1,1.3,0.7,1.8v0H63.3z M62.6,153.5
			c0-0.8-0.6-1.6-2.4-1.6H56l0,3.3h4.4c1.5,0,2.2-0.7,2.2-1.6V153.5z"/>
		<path class="st1" d="M70.8,161.2v-10.9h9.9v1.7h-7.9v2.8h6v1.7h-6v3h7.9v1.7H70.8z"/>
		<path class="st1" d="M96.5,161.2l-1.4-2.7h-6.4l-1.4,2.7h-2.2l5.9-10.9h1.7l6,10.9H96.5z M91.8,152.4l-2.4,4.6h4.8L91.8,152.4z"/>
		<path class="st1" d="M116.5,161.2v-8.6l-0.5,0.9l-4.6,7.7l-1,0l-4.5-7.7l-0.5-1v8.6h-2v-10.9h2.8l4.3,7.5l0.5,0.9l0.5-0.9l4.3-7.5
			h2.8v10.9L116.5,161.2z"/>
		<path class="st1" d="M124.7,161.2v-10.9h9.9v1.7h-7.9l0,2.8h6v1.7h-6l0,3h7.9l0,1.7L124.7,161.2z"/>
		<path class="st1" d="M150.1,161.2c-0.6,0-0.8-0.8-0.9-1.7l-0.1-1.1c-0.1-1.1-0.5-1.5-2.6-1.5h-3.9v4.4h-2v-10.9h5.9
			c3.3,0,4.7,1.3,4.7,3c0,1.2-0.6,2.3-2.7,2.7c2.1,0.2,2.6,1.1,2.6,2.4l0,0.9c0,0.8,0.1,1.3,0.7,1.8v0H150.1z M149.4,153.5
			c0-0.8-0.6-1.6-2.4-1.6h-4.2v3.3h4.4c1.5,0,2.2-0.7,2.2-1.6V153.5z"/>
		<path class="st1" d="M162.5,156.8l0,4.3h-2l0-4.4l-5.5-6.5h2.4l4.2,5.1l3.9-5.1l2.4,0L162.5,156.8z"/>
	</g>
	<g>
		<path class="st1" d="M187.7,160c-0.6,0-1.3-0.3-2.1-0.8c-0.7,0.5-1.6,0.8-2.7,0.8c-1.6,0-2.6-0.9-2.6-2c0-0.9,0.8-1.8,2.1-2.2
			c-0.3-0.5-0.5-1-0.5-1.4c0-1.2,0.9-2.1,2.4-2.1c1.4,0,2.2,0.9,2.2,1.9c0,0.8-0.8,1.7-2.3,2.1c0.4,0.5,1,1,1.5,1.5
			c0.8-0.8,1.4-1.5,1.7-2l0.9,0.7c-0.3,0.5-0.9,1.2-1.7,2c0.5,0.3,0.9,0.5,1.2,0.5c0.3,0,0.6-0.1,0.8-0.2l0.4,0.9
			C188.6,159.9,188.2,160,187.7,160z M182.9,156.5c-0.8,0.3-1.2,0.7-1.2,1.3c0,0.6,0.5,1.1,1.6,1.1c0.5,0,1.1-0.2,1.5-0.4
			C184.1,157.9,183.4,157.2,182.9,156.5z M184.3,153.3c-0.7,0-1.1,0.4-1.1,1.1c0,0.3,0.2,0.7,0.5,1.2c1.1-0.3,1.7-0.8,1.7-1.3
			C185.3,153.7,185,153.3,184.3,153.3z"/>
		<path class="st1" d="M211.6,153.3c-1-0.9-2.4-1.7-4.3-1.7c-2.9,0-4.5,2-4.5,4v0.2c0,2,1.6,3.9,4.6,3.9c1.8,0,3.3-0.9,4.2-1.7
			l1.2,1.3c-1.2,1.2-3.2,2.1-5.6,2.1c-4.1,0-6.5-2.6-6.5-5.6v-0.4c0-2.9,2.7-5.7,6.6-5.7c2.3,0,4.3,1,5.5,2.1L211.6,153.3z"/>
		<path class="st1" d="M223.7,161.5c-3.8,0-6.3-2.7-6.3-5.6v-0.4c0-2.9,2.5-5.6,6.3-5.6c3.8,0,6.3,2.7,6.3,5.6v0.4
			C230,158.7,227.5,161.5,223.7,161.5z M228,155.5c0-2.1-1.5-3.9-4.3-3.9c-2.7,0-4.3,1.9-4.3,3.9v0.3c0,2.1,1.5,4,4.3,4
			c2.7,0,4.3-1.9,4.3-4V155.5z"/>
		<path class="st1" d="M240.4,161.5c-3.9,0-5.7-2.1-5.7-4.9v-6.3h2v6.3c0,2,1.3,3.2,3.8,3.2c2.6,0,3.6-1.2,3.6-3.2v-6.3h2v6.3
			C246.1,159.2,244.4,161.5,240.4,161.5z"/>
		<path class="st1" d="M261.4,161l-7-7.2l-0.7-0.8v8h-2v-10.8h1.9l6.8,7.2l0.7,0.8v-8h2V161H261.4z"/>
		<path class="st1" d="M274.9,152v9.1h-2V152h-4.7v-1.7h11.4v1.7H274.9z"/>
		<path class="st1" d="M293.9,161c-0.5,0-0.8-0.8-0.9-1.7l-0.1-1.1c-0.1-1.1-0.5-1.5-2.5-1.5h-3.8v4.3h-2v-10.8h5.9
			c3.2,0,4.7,1.3,4.7,3c0,1.2-0.6,2.3-2.7,2.7c2.1,0.2,2.6,1.1,2.6,2.4l0,0.9c0,0.7,0.1,1.3,0.7,1.8v0H293.9z M293.2,153.5
			c0-0.8-0.6-1.5-2.4-1.5h-4.1v3.2h4.3c1.5,0,2.2-0.7,2.2-1.6V153.5z"/>
		<path class="st1" d="M306.7,156.7v4.3h-2v-4.3l-5.4-6.4h2.4l4.2,5l3.9-5h2.4L306.7,156.7z"/>
		<path class="st1" d="M338.4,161v-8.5l-0.5,0.9l-4.5,7.6h-1l-4.5-7.6l-0.5-0.9v8.5h-2v-10.8h2.8l4.2,7.4l0.5,0.9l0.5-0.9l4.2-7.4
			h2.8V161H338.4z"/>
		<path class="st1" d="M356.5,161l-1.4-2.7h-6.3l-1.4,2.7h-2.1l5.8-10.8h1.7l5.9,10.8H356.5z M351.9,152.4l-2.3,4.5h4.8L351.9,152.4
			z"/>
		<path class="st1" d="M372.5,161c-0.5,0-0.8-0.8-0.9-1.7l-0.1-1.1c-0.1-1.1-0.5-1.5-2.5-1.5h-3.8v4.3h-2v-10.8h5.9
			c3.2,0,4.7,1.3,4.7,3c0,1.2-0.6,2.3-2.7,2.7c2.1,0.2,2.6,1.1,2.6,2.4l0,0.9c0,0.7,0.1,1.3,0.7,1.8v0H372.5z M371.7,153.5
			c0-0.8-0.6-1.5-2.4-1.5h-4.1v3.2h4.3c1.5,0,2.2-0.7,2.2-1.6V153.5z"/>
		<path class="st1" d="M388.8,161c0,0-5.1-4.7-5.1-4.7l-1.8,1.4v3.2h-2v-10.8h2v5.5l6.6-5.5h2.7l-6.2,5c1.5,1.3,6.4,5.8,6.4,5.8
			H388.8z"/>
		<path class="st1" d="M396.5,161v-10.8h9.8v1.7h-7.8v2.8h6v1.6h-6v3h7.8v1.7H396.5z"/>
		<path class="st1" d="M418.1,152v9.1h-2V152h-4.7v-1.7h11.4v1.7H418.1z"/>
	</g>
</g>
</svg>
